# xmcd
#
# Track frame offsets:
#	150
#	18750
#	34200
#	56725
#	80813
#	100213
#	121888
#	145988
#	162750
#	182513
#	199838
#	221700
#
# Disc length: 3201 seconds
#
# Revision: 0
# Processed by: cddbd v1.5.2PL0 Copyright (c) Steve Scherf et al.
# Submitted via: EZCDAudioConverter 7.1.5.1
#
DISCID=a60c7f0c
DTITLE=高林生 - 牵挂你的人是我
DYEAR=1993
DGENRE=
TTITLE0=牵挂你的人是我
TTITLE1=对你的爱
TTITLE2=走近你就是我的问候
TTITLE3=过眼云烟也留情
TTITLE4=你是地.我是天
TTITLE5=有了你
TTITLE6=挥手的际遇
TTITLE7=面对世界
TTITLE8=也许
TTITLE9=等待你的心
TTITLE10=是雨是夜
TTITLE11=牵挂你的人是我(OK)
EXTD=
EXTT0=
EXTT1=
EXTT2=
EXTT3=
EXTT4=
EXTT5=
EXTT6=
EXTT7=
EXTT8=
EXTT9=
EXTT10=
EXTT11=
PLAYORDER=
